<svg width="838" height="249" viewBox="0 0 838 249" fill="none" xmlns="http://www.w3.org/2000/svg">
<path d="M281.524 153.423H286.704V154.319H281.524V153.423ZM281.636 158.477H280.6V148.677H287.32V149.573H281.636V158.477ZM293.555 158.477V156.853L293.513 156.587V153.871C293.513 153.246 293.335 152.765 292.981 152.429C292.635 152.093 292.117 151.925 291.427 151.925C290.951 151.925 290.498 152.005 290.069 152.163C289.639 152.322 289.275 152.532 288.977 152.793L288.529 152.051C288.902 151.734 289.35 151.491 289.873 151.323C290.395 151.146 290.946 151.057 291.525 151.057C292.477 151.057 293.209 151.295 293.723 151.771C294.245 152.238 294.507 152.952 294.507 153.913V158.477H293.555ZM291.021 158.547C290.47 158.547 289.989 158.459 289.579 158.281C289.177 158.095 288.869 157.843 288.655 157.525C288.44 157.199 288.333 156.825 288.333 156.405C288.333 156.023 288.421 155.677 288.599 155.369C288.785 155.052 289.084 154.8 289.495 154.613C289.915 154.417 290.475 154.319 291.175 154.319H293.709V155.061H291.203C290.493 155.061 289.999 155.187 289.719 155.439C289.448 155.691 289.313 156.004 289.313 156.377C289.313 156.797 289.476 157.133 289.803 157.385C290.129 157.637 290.587 157.763 291.175 157.763C291.735 157.763 292.215 157.637 292.617 157.385C293.027 157.124 293.326 156.751 293.513 156.265L293.737 156.951C293.55 157.437 293.223 157.824 292.757 158.113C292.299 158.403 291.721 158.547 291.021 158.547ZM299.18 158.547C298.574 158.547 298 158.463 297.458 158.295C296.917 158.118 296.492 157.899 296.184 157.637L296.632 156.853C296.931 157.077 297.314 157.273 297.78 157.441C298.247 157.6 298.737 157.679 299.25 157.679C299.95 157.679 300.454 157.572 300.762 157.357C301.07 157.133 301.224 156.839 301.224 156.475C301.224 156.205 301.136 155.995 300.958 155.845C300.79 155.687 300.566 155.57 300.286 155.495C300.006 155.411 299.694 155.341 299.348 155.285C299.003 155.229 298.658 155.164 298.312 155.089C297.976 155.015 297.668 154.907 297.388 154.767C297.108 154.618 296.88 154.417 296.702 154.165C296.534 153.913 296.45 153.577 296.45 153.157C296.45 152.756 296.562 152.397 296.786 152.079C297.01 151.762 297.337 151.515 297.766 151.337C298.205 151.151 298.737 151.057 299.362 151.057C299.838 151.057 300.314 151.123 300.79 151.253C301.266 151.375 301.658 151.538 301.966 151.743L301.532 152.541C301.206 152.317 300.856 152.159 300.482 152.065C300.109 151.963 299.736 151.911 299.362 151.911C298.7 151.911 298.21 152.028 297.892 152.261C297.584 152.485 297.43 152.775 297.43 153.129C297.43 153.409 297.514 153.629 297.682 153.787C297.86 153.946 298.088 154.072 298.368 154.165C298.658 154.249 298.97 154.319 299.306 154.375C299.652 154.431 299.992 154.501 300.328 154.585C300.674 154.66 300.986 154.767 301.266 154.907C301.556 155.038 301.784 155.229 301.952 155.481C302.13 155.724 302.218 156.046 302.218 156.447C302.218 156.877 302.097 157.25 301.854 157.567C301.621 157.875 301.276 158.118 300.818 158.295C300.37 158.463 299.824 158.547 299.18 158.547ZM306.366 158.547C305.676 158.547 305.144 158.361 304.77 157.987C304.397 157.614 304.21 157.087 304.21 156.405V149.503H305.204V156.349C305.204 156.779 305.312 157.11 305.526 157.343C305.75 157.577 306.068 157.693 306.478 157.693C306.917 157.693 307.281 157.567 307.57 157.315L307.92 158.029C307.724 158.207 307.486 158.337 307.206 158.421C306.936 158.505 306.656 158.547 306.366 158.547ZM302.894 151.953V151.127H307.444V151.953H302.894ZM315.508 158.477V149.573H312.064V148.677H319.988V149.573H316.544V158.477H315.508ZM321.01 161.263C320.665 161.263 320.334 161.207 320.016 161.095C319.708 160.983 319.442 160.815 319.218 160.591L319.68 159.849C319.867 160.027 320.068 160.162 320.282 160.255C320.506 160.358 320.754 160.409 321.024 160.409C321.351 160.409 321.631 160.316 321.864 160.129C322.107 159.952 322.336 159.635 322.55 159.177L323.026 158.099L323.138 157.945L326.162 151.127H327.142L323.46 159.359C323.255 159.835 323.026 160.213 322.774 160.493C322.532 160.773 322.266 160.969 321.976 161.081C321.687 161.203 321.365 161.263 321.01 161.263ZM322.97 158.687L319.582 151.127H320.618L323.614 157.875L322.97 158.687ZM332.336 158.547C331.702 158.547 331.128 158.403 330.614 158.113C330.101 157.815 329.69 157.39 329.382 156.839C329.084 156.279 328.934 155.598 328.934 154.795C328.934 153.993 329.084 153.316 329.382 152.765C329.681 152.205 330.087 151.781 330.6 151.491C331.114 151.202 331.692 151.057 332.336 151.057C333.036 151.057 333.662 151.216 334.212 151.533C334.772 151.841 335.211 152.28 335.528 152.849C335.846 153.409 336.004 154.058 336.004 154.795C336.004 155.542 335.846 156.195 335.528 156.755C335.211 157.315 334.772 157.754 334.212 158.071C333.662 158.389 333.036 158.547 332.336 158.547ZM328.542 161.193V151.127H329.494V153.339L329.396 154.809L329.536 156.293V161.193H328.542ZM332.266 157.665C332.789 157.665 333.256 157.549 333.666 157.315C334.077 157.073 334.404 156.737 334.646 156.307C334.889 155.869 335.01 155.365 335.01 154.795C335.01 154.226 334.889 153.727 334.646 153.297C334.404 152.868 334.077 152.532 333.666 152.289C333.256 152.047 332.789 151.925 332.266 151.925C331.744 151.925 331.272 152.047 330.852 152.289C330.442 152.532 330.115 152.868 329.872 153.297C329.639 153.727 329.522 154.226 329.522 154.795C329.522 155.365 329.639 155.869 329.872 156.307C330.115 156.737 330.442 157.073 330.852 157.315C331.272 157.549 331.744 157.665 332.266 157.665ZM341.153 158.547C340.387 158.547 339.715 158.389 339.137 158.071C338.558 157.745 338.105 157.301 337.779 156.741C337.452 156.172 337.289 155.523 337.289 154.795C337.289 154.067 337.443 153.423 337.751 152.863C338.068 152.303 338.497 151.865 339.039 151.547C339.589 151.221 340.205 151.057 340.887 151.057C341.577 151.057 342.189 151.216 342.721 151.533C343.262 151.841 343.687 152.28 343.995 152.849C344.303 153.409 344.457 154.058 344.457 154.795C344.457 154.842 344.452 154.893 344.443 154.949C344.443 154.996 344.443 155.047 344.443 155.103H338.045V154.361H343.911L343.519 154.655C343.519 154.123 343.402 153.652 343.169 153.241C342.945 152.821 342.637 152.495 342.245 152.261C341.853 152.028 341.4 151.911 340.887 151.911C340.383 151.911 339.93 152.028 339.529 152.261C339.127 152.495 338.815 152.821 338.591 153.241C338.367 153.661 338.255 154.142 338.255 154.683V154.837C338.255 155.397 338.376 155.892 338.619 156.321C338.871 156.741 339.216 157.073 339.655 157.315C340.103 157.549 340.611 157.665 341.181 157.665C341.629 157.665 342.044 157.586 342.427 157.427C342.819 157.269 343.155 157.026 343.435 156.699L343.995 157.343C343.668 157.735 343.257 158.034 342.763 158.239C342.277 158.445 341.741 158.547 341.153 158.547ZM349.392 158.561C348.664 158.561 347.964 158.445 347.292 158.211C346.629 157.969 346.116 157.661 345.752 157.287L346.158 156.489C346.503 156.825 346.965 157.11 347.544 157.343C348.132 157.567 348.748 157.679 349.392 157.679C350.008 157.679 350.507 157.605 350.89 157.455C351.282 157.297 351.567 157.087 351.744 156.825C351.931 156.564 352.024 156.275 352.024 155.957C352.024 155.575 351.912 155.267 351.688 155.033C351.473 154.8 351.189 154.618 350.834 154.487C350.479 154.347 350.087 154.226 349.658 154.123C349.229 154.021 348.799 153.913 348.37 153.801C347.941 153.68 347.544 153.521 347.18 153.325C346.825 153.129 346.536 152.873 346.312 152.555C346.097 152.229 345.99 151.804 345.99 151.281C345.99 150.796 346.116 150.353 346.368 149.951C346.629 149.541 347.026 149.214 347.558 148.971C348.09 148.719 348.771 148.593 349.602 148.593C350.153 148.593 350.699 148.673 351.24 148.831C351.781 148.981 352.248 149.191 352.64 149.461L352.29 150.287C351.87 150.007 351.422 149.802 350.946 149.671C350.479 149.541 350.027 149.475 349.588 149.475C349 149.475 348.515 149.555 348.132 149.713C347.749 149.872 347.465 150.087 347.278 150.357C347.101 150.619 347.012 150.917 347.012 151.253C347.012 151.636 347.119 151.944 347.334 152.177C347.558 152.411 347.847 152.593 348.202 152.723C348.566 152.854 348.963 152.971 349.392 153.073C349.821 153.176 350.246 153.288 350.666 153.409C351.095 153.531 351.487 153.689 351.842 153.885C352.206 154.072 352.495 154.324 352.71 154.641C352.934 154.959 353.046 155.374 353.046 155.887C353.046 156.363 352.915 156.807 352.654 157.217C352.393 157.619 351.991 157.945 351.45 158.197C350.918 158.44 350.232 158.561 349.392 158.561ZM358.145 158.547C357.417 158.547 356.764 158.389 356.185 158.071C355.616 157.745 355.168 157.301 354.841 156.741C354.514 156.172 354.351 155.523 354.351 154.795C354.351 154.058 354.514 153.409 354.841 152.849C355.168 152.289 355.616 151.851 356.185 151.533C356.764 151.216 357.417 151.057 358.145 151.057C358.77 151.057 359.335 151.179 359.839 151.421C360.343 151.664 360.74 152.028 361.029 152.513L360.287 153.017C360.035 152.644 359.722 152.369 359.349 152.191C358.976 152.014 358.57 151.925 358.131 151.925C357.608 151.925 357.137 152.047 356.717 152.289C356.297 152.523 355.966 152.854 355.723 153.283C355.48 153.713 355.359 154.217 355.359 154.795C355.359 155.374 355.48 155.878 355.723 156.307C355.966 156.737 356.297 157.073 356.717 157.315C357.137 157.549 357.608 157.665 358.131 157.665C358.57 157.665 358.976 157.577 359.349 157.399C359.722 157.222 360.035 156.951 360.287 156.587L361.029 157.091C360.74 157.567 360.343 157.931 359.839 158.183C359.335 158.426 358.77 158.547 358.145 158.547ZM362.982 158.477V151.127H363.934V153.129L363.836 152.779C364.041 152.219 364.386 151.795 364.872 151.505C365.357 151.207 365.959 151.057 366.678 151.057V152.023C366.64 152.023 366.603 152.023 366.566 152.023C366.528 152.014 366.491 152.009 366.454 152.009C365.679 152.009 365.072 152.247 364.634 152.723C364.195 153.19 363.976 153.857 363.976 154.725V158.477H362.982ZM368.492 158.477V151.127H369.486V158.477H368.492ZM368.996 149.503C368.79 149.503 368.618 149.433 368.478 149.293C368.338 149.153 368.268 148.985 368.268 148.789C368.268 148.593 368.338 148.43 368.478 148.299C368.618 148.159 368.79 148.089 368.996 148.089C369.201 148.089 369.374 148.155 369.514 148.285C369.654 148.416 369.724 148.579 369.724 148.775C369.724 148.981 369.654 149.153 369.514 149.293C369.383 149.433 369.21 149.503 368.996 149.503ZM376.045 158.547C375.411 158.547 374.837 158.403 374.323 158.113C373.81 157.815 373.399 157.39 373.091 156.839C372.793 156.279 372.643 155.598 372.643 154.795C372.643 153.993 372.793 153.316 373.091 152.765C373.39 152.205 373.796 151.781 374.309 151.491C374.823 151.202 375.401 151.057 376.045 151.057C376.745 151.057 377.371 151.216 377.921 151.533C378.481 151.841 378.92 152.28 379.237 152.849C379.555 153.409 379.713 154.058 379.713 154.795C379.713 155.542 379.555 156.195 379.237 156.755C378.92 157.315 378.481 157.754 377.921 158.071C377.371 158.389 376.745 158.547 376.045 158.547ZM372.251 161.193V151.127H373.203V153.339L373.105 154.809L373.245 156.293V161.193H372.251ZM375.975 157.665C376.498 157.665 376.965 157.549 377.375 157.315C377.786 157.073 378.113 156.737 378.355 156.307C378.598 155.869 378.719 155.365 378.719 154.795C378.719 154.226 378.598 153.727 378.355 153.297C378.113 152.868 377.786 152.532 377.375 152.289C376.965 152.047 376.498 151.925 375.975 151.925C375.453 151.925 374.981 152.047 374.561 152.289C374.151 152.532 373.824 152.868 373.581 153.297C373.348 153.727 373.231 154.226 373.231 154.795C373.231 155.365 373.348 155.869 373.581 156.307C373.824 156.737 374.151 157.073 374.561 157.315C374.981 157.549 375.453 157.665 375.975 157.665ZM384.064 158.547C383.373 158.547 382.841 158.361 382.468 157.987C382.094 157.614 381.908 157.087 381.908 156.405V149.503H382.902V156.349C382.902 156.779 383.009 157.11 383.224 157.343C383.448 157.577 383.765 157.693 384.176 157.693C384.614 157.693 384.978 157.567 385.268 157.315L385.618 158.029C385.422 158.207 385.184 158.337 384.904 158.421C384.633 158.505 384.353 158.547 384.064 158.547ZM380.592 151.953V151.127H385.142V151.953H380.592ZM389.943 158.477L393.961 153.045V153.843L390.181 148.677H391.371L394.549 152.989L394.087 153.003L397.265 148.677H398.385L394.647 153.773V153.045L398.651 158.477H397.447L394.059 153.871H394.493L391.133 158.477H389.943ZM400.147 158.477V148.677H401.001L405.481 156.321H405.033L409.471 148.677H410.325V158.477H409.331V150.231H409.569L405.481 157.231H404.991L400.875 150.231H401.141V158.477H400.147ZM413.518 158.477V148.677H414.554V157.581H420.042V158.477H413.518ZM425.426 158.477V148.677H429.094C429.925 148.677 430.639 148.813 431.236 149.083C431.834 149.345 432.291 149.727 432.608 150.231C432.935 150.726 433.098 151.328 433.098 152.037C433.098 152.728 432.935 153.325 432.608 153.829C432.291 154.324 431.834 154.707 431.236 154.977C430.639 155.248 429.925 155.383 429.094 155.383H426L426.462 154.893V158.477H425.426ZM426.462 154.977L426 154.473H429.066C430.046 154.473 430.788 154.263 431.292 153.843C431.806 153.414 432.062 152.812 432.062 152.037C432.062 151.253 431.806 150.647 431.292 150.217C430.788 149.788 430.046 149.573 429.066 149.573H426L426.462 149.083V154.977ZM439.666 158.477V156.853L439.624 156.587V153.871C439.624 153.246 439.447 152.765 439.092 152.429C438.747 152.093 438.229 151.925 437.538 151.925C437.062 151.925 436.609 152.005 436.18 152.163C435.751 152.322 435.387 152.532 435.088 152.793L434.64 152.051C435.013 151.734 435.461 151.491 435.984 151.323C436.507 151.146 437.057 151.057 437.636 151.057C438.588 151.057 439.321 151.295 439.834 151.771C440.357 152.238 440.618 152.952 440.618 153.913V158.477H439.666ZM437.132 158.547C436.581 158.547 436.101 158.459 435.69 158.281C435.289 158.095 434.981 157.843 434.766 157.525C434.551 157.199 434.444 156.825 434.444 156.405C434.444 156.023 434.533 155.677 434.71 155.369C434.897 155.052 435.195 154.8 435.606 154.613C436.026 154.417 436.586 154.319 437.286 154.319H439.82V155.061H437.314C436.605 155.061 436.11 155.187 435.83 155.439C435.559 155.691 435.424 156.004 435.424 156.377C435.424 156.797 435.587 157.133 435.914 157.385C436.241 157.637 436.698 157.763 437.286 157.763C437.846 157.763 438.327 157.637 438.728 157.385C439.139 157.124 439.437 156.751 439.624 156.265L439.848 156.951C439.661 157.437 439.335 157.824 438.868 158.113C438.411 158.403 437.832 158.547 437.132 158.547ZM443.318 158.477V151.127H444.27V153.129L444.172 152.779C444.377 152.219 444.722 151.795 445.208 151.505C445.693 151.207 446.295 151.057 447.014 151.057V152.023C446.976 152.023 446.939 152.023 446.902 152.023C446.864 152.014 446.827 152.009 446.79 152.009C446.015 152.009 445.408 152.247 444.97 152.723C444.531 153.19 444.312 153.857 444.312 154.725V158.477H443.318ZM450.884 158.547C450.277 158.547 449.703 158.463 449.162 158.295C448.62 158.118 448.196 157.899 447.888 157.637L448.336 156.853C448.634 157.077 449.017 157.273 449.484 157.441C449.95 157.6 450.44 157.679 450.954 157.679C451.654 157.679 452.158 157.572 452.466 157.357C452.774 157.133 452.928 156.839 452.928 156.475C452.928 156.205 452.839 155.995 452.662 155.845C452.494 155.687 452.27 155.57 451.99 155.495C451.71 155.411 451.397 155.341 451.052 155.285C450.706 155.229 450.361 155.164 450.016 155.089C449.68 155.015 449.372 154.907 449.092 154.767C448.812 154.618 448.583 154.417 448.406 154.165C448.238 153.913 448.154 153.577 448.154 153.157C448.154 152.756 448.266 152.397 448.49 152.079C448.714 151.762 449.04 151.515 449.47 151.337C449.908 151.151 450.44 151.057 451.066 151.057C451.542 151.057 452.018 151.123 452.494 151.253C452.97 151.375 453.362 151.538 453.67 151.743L453.236 152.541C452.909 152.317 452.559 152.159 452.186 152.065C451.812 151.963 451.439 151.911 451.066 151.911C450.403 151.911 449.913 152.028 449.596 152.261C449.288 152.485 449.134 152.775 449.134 153.129C449.134 153.409 449.218 153.629 449.386 153.787C449.563 153.946 449.792 154.072 450.072 154.165C450.361 154.249 450.674 154.319 451.01 154.375C451.355 154.431 451.696 154.501 452.032 154.585C452.377 154.66 452.69 154.767 452.97 154.907C453.259 155.038 453.488 155.229 453.656 155.481C453.833 155.724 453.922 156.046 453.922 156.447C453.922 156.877 453.8 157.25 453.558 157.567C453.324 157.875 452.979 158.118 452.522 158.295C452.074 158.463 451.528 158.547 450.884 158.547ZM455.745 158.477V151.127H456.739V158.477H455.745ZM456.249 149.503C456.044 149.503 455.871 149.433 455.731 149.293C455.591 149.153 455.521 148.985 455.521 148.789C455.521 148.593 455.591 148.43 455.731 148.299C455.871 148.159 456.044 148.089 456.249 148.089C456.455 148.089 456.627 148.155 456.767 148.285C456.907 148.416 456.977 148.579 456.977 148.775C456.977 148.981 456.907 149.153 456.767 149.293C456.637 149.433 456.464 149.503 456.249 149.503ZM463.257 151.057C463.855 151.057 464.377 151.174 464.825 151.407C465.283 151.631 465.637 151.977 465.889 152.443C466.151 152.91 466.281 153.498 466.281 154.207V158.477H465.287V154.305C465.287 153.531 465.091 152.947 464.699 152.555C464.317 152.154 463.775 151.953 463.075 151.953C462.553 151.953 462.095 152.061 461.703 152.275C461.321 152.481 461.022 152.784 460.807 153.185C460.602 153.577 460.499 154.053 460.499 154.613V158.477H459.505V151.127H460.457V153.143L460.303 152.765C460.537 152.233 460.91 151.818 461.423 151.519C461.937 151.211 462.548 151.057 463.257 151.057ZM472.102 161.263C471.43 161.263 470.786 161.165 470.17 160.969C469.554 160.773 469.055 160.493 468.672 160.129L469.176 159.373C469.522 159.681 469.946 159.924 470.45 160.101C470.964 160.288 471.505 160.381 472.074 160.381C473.008 160.381 473.694 160.162 474.132 159.723C474.571 159.294 474.79 158.622 474.79 157.707V155.873L474.93 154.613L474.832 153.353V151.127H475.784V157.581C475.784 158.851 475.472 159.779 474.846 160.367C474.23 160.965 473.316 161.263 472.102 161.263ZM471.92 158.197C471.22 158.197 470.59 158.048 470.03 157.749C469.47 157.441 469.027 157.017 468.7 156.475C468.383 155.934 468.224 155.313 468.224 154.613C468.224 153.913 468.383 153.297 468.7 152.765C469.027 152.224 469.47 151.804 470.03 151.505C470.59 151.207 471.22 151.057 471.92 151.057C472.574 151.057 473.162 151.193 473.684 151.463C474.207 151.734 474.622 152.135 474.93 152.667C475.238 153.199 475.392 153.848 475.392 154.613C475.392 155.379 475.238 156.027 474.93 156.559C474.622 157.091 474.207 157.497 473.684 157.777C473.162 158.057 472.574 158.197 471.92 158.197ZM472.018 157.315C472.56 157.315 473.04 157.203 473.46 156.979C473.88 156.746 474.212 156.429 474.454 156.027C474.697 155.617 474.818 155.145 474.818 154.613C474.818 154.081 474.697 153.615 474.454 153.213C474.212 152.812 473.88 152.499 473.46 152.275C473.04 152.042 472.56 151.925 472.018 151.925C471.486 151.925 471.006 152.042 470.576 152.275C470.156 152.499 469.825 152.812 469.582 153.213C469.349 153.615 469.232 154.081 469.232 154.613C469.232 155.145 469.349 155.617 469.582 156.027C469.825 156.429 470.156 156.746 470.576 156.979C471.006 157.203 471.486 157.315 472.018 157.315ZM484.804 158.561C484.17 158.561 483.605 158.459 483.11 158.253C482.616 158.039 482.224 157.745 481.934 157.371C481.654 156.998 481.514 156.564 481.514 156.069C481.514 155.649 481.608 155.267 481.794 154.921C481.981 154.567 482.28 154.221 482.69 153.885C483.11 153.54 483.666 153.181 484.356 152.807C484.944 152.481 485.402 152.201 485.728 151.967C486.064 151.725 486.302 151.496 486.442 151.281C486.582 151.057 486.652 150.819 486.652 150.567C486.652 150.203 486.526 149.909 486.274 149.685C486.032 149.461 485.682 149.349 485.224 149.349C484.73 149.349 484.347 149.475 484.076 149.727C483.806 149.97 483.67 150.287 483.67 150.679C483.67 150.875 483.698 151.062 483.754 151.239C483.82 151.417 483.936 151.613 484.104 151.827C484.282 152.042 484.524 152.313 484.832 152.639L490.012 157.973L489.438 158.631L484.034 153.073C483.708 152.728 483.446 152.429 483.25 152.177C483.064 151.916 482.933 151.669 482.858 151.435C482.784 151.202 482.746 150.955 482.746 150.693C482.746 150.273 482.844 149.909 483.04 149.601C483.246 149.284 483.535 149.041 483.908 148.873C484.282 148.696 484.72 148.607 485.224 148.607C485.682 148.607 486.078 148.687 486.414 148.845C486.76 148.995 487.026 149.214 487.212 149.503C487.408 149.793 487.506 150.143 487.506 150.553C487.506 150.908 487.418 151.239 487.24 151.547C487.072 151.855 486.792 152.159 486.4 152.457C486.008 152.747 485.476 153.073 484.804 153.437C484.216 153.764 483.75 154.063 483.404 154.333C483.068 154.604 482.83 154.87 482.69 155.131C482.55 155.383 482.48 155.663 482.48 155.971C482.48 156.326 482.578 156.639 482.774 156.909C482.98 157.171 483.26 157.376 483.614 157.525C483.978 157.665 484.394 157.735 484.86 157.735C485.514 157.735 486.097 157.6 486.61 157.329C487.124 157.059 487.553 156.648 487.898 156.097C488.253 155.547 488.51 154.856 488.668 154.025L489.466 154.277C489.289 155.211 488.986 155.995 488.556 156.629C488.127 157.264 487.595 157.745 486.96 158.071C486.326 158.398 485.607 158.561 484.804 158.561ZM497.68 158.477L494.376 148.677H495.44L498.534 157.903H498.002L501.194 148.677H502.146L505.296 157.903H504.792L507.914 148.677H508.908L505.604 158.477H504.512L501.502 149.727H501.782L498.758 158.477H497.68ZM510.31 158.477V151.127H511.262V153.129L511.164 152.779C511.369 152.219 511.715 151.795 512.2 151.505C512.685 151.207 513.287 151.057 514.006 151.057V152.023C513.969 152.023 513.931 152.023 513.894 152.023C513.857 152.014 513.819 152.009 513.782 152.009C513.007 152.009 512.401 152.247 511.962 152.723C511.523 153.19 511.304 153.857 511.304 154.725V158.477H510.31ZM515.82 158.477V151.127H516.814V158.477H515.82ZM516.324 149.503C516.118 149.503 515.946 149.433 515.806 149.293C515.666 149.153 515.596 148.985 515.596 148.789C515.596 148.593 515.666 148.43 515.806 148.299C515.946 148.159 516.118 148.089 516.324 148.089C516.529 148.089 516.702 148.155 516.842 148.285C516.982 148.416 517.052 148.579 517.052 148.775C517.052 148.981 516.982 149.153 516.842 149.293C516.711 149.433 516.538 149.503 516.324 149.503ZM521.903 158.547C521.213 158.547 520.681 158.361 520.307 157.987C519.934 157.614 519.747 157.087 519.747 156.405V149.503H520.741V156.349C520.741 156.779 520.849 157.11 521.063 157.343C521.287 157.577 521.605 157.693 522.015 157.693C522.454 157.693 522.818 157.567 523.107 157.315L523.457 158.029C523.261 158.207 523.023 158.337 522.743 158.421C522.473 158.505 522.193 158.547 521.903 158.547ZM518.431 151.953V151.127H522.981V151.953H518.431ZM525.267 158.477V151.127H526.261V158.477H525.267ZM525.771 149.503C525.566 149.503 525.393 149.433 525.253 149.293C525.113 149.153 525.043 148.985 525.043 148.789C525.043 148.593 525.113 148.43 525.253 148.299C525.393 148.159 525.566 148.089 525.771 148.089C525.976 148.089 526.149 148.155 526.289 148.285C526.429 148.416 526.499 148.579 526.499 148.775C526.499 148.981 526.429 149.153 526.289 149.293C526.158 149.433 525.986 149.503 525.771 149.503ZM532.779 151.057C533.376 151.057 533.899 151.174 534.347 151.407C534.804 151.631 535.159 151.977 535.411 152.443C535.672 152.91 535.803 153.498 535.803 154.207V158.477H534.809V154.305C534.809 153.531 534.613 152.947 534.221 152.555C533.838 152.154 533.297 151.953 532.597 151.953C532.074 151.953 531.617 152.061 531.225 152.275C530.842 152.481 530.543 152.784 530.329 153.185C530.123 153.577 530.021 154.053 530.021 154.613V158.477H529.027V151.127H529.979V153.143L529.825 152.765C530.058 152.233 530.431 151.818 530.945 151.519C531.458 151.211 532.069 151.057 532.779 151.057ZM541.624 161.263C540.952 161.263 540.308 161.165 539.692 160.969C539.076 160.773 538.576 160.493 538.194 160.129L538.698 159.373C539.043 159.681 539.468 159.924 539.972 160.101C540.485 160.288 541.026 160.381 541.596 160.381C542.529 160.381 543.215 160.162 543.654 159.723C544.092 159.294 544.312 158.622 544.312 157.707V155.873L544.452 154.613L544.354 153.353V151.127H545.306V157.581C545.306 158.851 544.993 159.779 544.368 160.367C543.752 160.965 542.837 161.263 541.624 161.263ZM541.442 158.197C540.742 158.197 540.112 158.048 539.552 157.749C538.992 157.441 538.548 157.017 538.222 156.475C537.904 155.934 537.746 155.313 537.746 154.613C537.746 153.913 537.904 153.297 538.222 152.765C538.548 152.224 538.992 151.804 539.552 151.505C540.112 151.207 540.742 151.057 541.442 151.057C542.095 151.057 542.683 151.193 543.206 151.463C543.728 151.734 544.144 152.135 544.452 152.667C544.76 153.199 544.914 153.848 544.914 154.613C544.914 155.379 544.76 156.027 544.452 156.559C544.144 157.091 543.728 157.497 543.206 157.777C542.683 158.057 542.095 158.197 541.442 158.197ZM541.54 157.315C542.081 157.315 542.562 157.203 542.982 156.979C543.402 156.746 543.733 156.429 543.976 156.027C544.218 155.617 544.34 155.145 544.34 154.613C544.34 154.081 544.218 153.615 543.976 153.213C543.733 152.812 543.402 152.499 542.982 152.275C542.562 152.042 542.081 151.925 541.54 151.925C541.008 151.925 540.527 152.042 540.098 152.275C539.678 152.499 539.346 152.812 539.104 153.213C538.87 153.615 538.754 154.081 538.754 154.613C538.754 155.145 538.87 155.617 539.104 156.027C539.346 156.429 539.678 156.746 540.098 156.979C540.527 157.203 541.008 157.315 541.54 157.315Z" fill="#2B4B84"/>
<g filter="url(#filter0_d_2_15292)">
<g filter="url(#filter1_dii_2_15292)">
<path d="M579.211 130C577.307 130 575.505 129.664 573.805 128.991C572.105 128.251 570.609 127.275 569.317 126.064C568.093 124.853 567.107 123.44 566.359 121.826C565.611 120.211 565.237 118.462 565.237 116.578V90.844C565.237 89.4985 565.713 88.3547 566.665 87.4128C567.617 86.4709 568.773 86 570.133 86C571.425 86 572.547 86.4709 573.499 87.4128C574.519 88.3547 575.029 89.4985 575.029 90.844V116.578C575.029 117.587 575.403 118.462 576.151 119.202C576.967 119.942 577.885 120.312 578.905 120.312H640.104C641.464 120.312 642.62 120.783 643.572 121.725C644.524 122.667 645 123.81 645 125.156C645 126.502 644.524 127.645 643.572 128.587C642.62 129.529 641.464 130 640.104 130H579.211Z" fill="url(#paint0_linear_2_15292)"/>
<path d="M579.211 130C577.307 130 575.505 129.664 573.805 128.991C572.105 128.251 570.609 127.275 569.317 126.064C568.093 124.853 567.107 123.44 566.359 121.826C565.611 120.211 565.237 118.462 565.237 116.578V90.844C565.237 89.4985 565.713 88.3547 566.665 87.4128C567.617 86.4709 568.773 86 570.133 86C571.425 86 572.547 86.4709 573.499 87.4128C574.519 88.3547 575.029 89.4985 575.029 90.844V116.578C575.029 117.587 575.403 118.462 576.151 119.202C576.967 119.942 577.885 120.312 578.905 120.312H640.104C641.464 120.312 642.62 120.783 643.572 121.725C644.524 122.667 645 123.81 645 125.156C645 126.502 644.524 127.645 643.572 128.587C642.62 129.529 641.464 130 640.104 130H579.211Z" fill="#C5DCF1"/>
</g>
<g filter="url(#filter2_dii_2_15292)">
<path d="M555.003 125.156C555.003 126.502 554.527 127.645 553.575 128.587C552.623 129.529 551.467 130 550.107 130C548.747 130 547.591 129.529 546.639 128.587C545.687 127.645 545.211 126.502 545.211 125.156V103.156C545.211 100.398 545.041 99.0183 544.701 99.0183C544.429 99.0183 543.477 99.9266 541.845 101.743L519.405 126.972C518.521 127.982 517.433 128.755 516.141 129.294C514.849 129.765 513.455 130 511.959 130C510.463 130 509.069 129.765 507.777 129.294C506.485 128.755 505.397 127.982 504.513 126.972L482.073 101.743C480.509 99.9266 479.557 99.0183 479.217 99.0183C478.877 99.0183 478.707 100.398 478.707 103.156V125.156C478.707 126.502 478.231 127.645 477.279 128.587C476.327 129.529 475.171 130 473.811 130C472.451 130 471.296 129.529 470.344 128.587C469.392 127.645 468.916 126.502 468.916 125.156V95.6881C468.916 92.9969 469.698 90.7095 471.262 88.8257C472.826 86.9419 474.967 86 477.687 86C479.319 86 480.781 86.4037 482.073 87.211C483.365 88.0183 484.555 88.9939 485.643 90.1376L509.103 116.578C509.443 116.914 509.851 117.284 510.327 117.688C510.871 118.024 511.415 118.193 511.959 118.193C512.503 118.193 513.013 118.024 513.489 117.688C514.033 117.284 514.475 116.914 514.815 116.578L538.173 90.1376H538.275C539.227 88.8593 540.383 87.8502 541.743 87.1101C543.103 86.37 544.599 86 546.231 86C548.951 86 551.093 86.9419 552.657 88.8257C554.221 90.7095 555.003 92.9969 555.003 95.6881V125.156Z" fill="url(#paint1_linear_2_15292)"/>
<path d="M555.003 125.156C555.003 126.502 554.527 127.645 553.575 128.587C552.623 129.529 551.467 130 550.107 130C548.747 130 547.591 129.529 546.639 128.587C545.687 127.645 545.211 126.502 545.211 125.156V103.156C545.211 100.398 545.041 99.0183 544.701 99.0183C544.429 99.0183 543.477 99.9266 541.845 101.743L519.405 126.972C518.521 127.982 517.433 128.755 516.141 129.294C514.849 129.765 513.455 130 511.959 130C510.463 130 509.069 129.765 507.777 129.294C506.485 128.755 505.397 127.982 504.513 126.972L482.073 101.743C480.509 99.9266 479.557 99.0183 479.217 99.0183C478.877 99.0183 478.707 100.398 478.707 103.156V125.156C478.707 126.502 478.231 127.645 477.279 128.587C476.327 129.529 475.171 130 473.811 130C472.451 130 471.296 129.529 470.344 128.587C469.392 127.645 468.916 126.502 468.916 125.156V95.6881C468.916 92.9969 469.698 90.7095 471.262 88.8257C472.826 86.9419 474.967 86 477.687 86C479.319 86 480.781 86.4037 482.073 87.211C483.365 88.0183 484.555 88.9939 485.643 90.1376L509.103 116.578C509.443 116.914 509.851 117.284 510.327 117.688C510.871 118.024 511.415 118.193 511.959 118.193C512.503 118.193 513.013 118.024 513.489 117.688C514.033 117.284 514.475 116.914 514.815 116.578L538.173 90.1376H538.275C539.227 88.8593 540.383 87.8502 541.743 87.1101C543.103 86.37 544.599 86 546.231 86C548.951 86 551.093 86.9419 552.657 88.8257C554.221 90.7095 555.003 92.9969 555.003 95.6881V125.156Z" fill="#C5DCF1"/>
</g>
<g filter="url(#filter3_dii_2_15292)">
<path d="M388.849 112.844C386.945 112.844 385.177 112.508 383.545 111.835C381.913 111.095 380.485 110.119 379.261 108.908C378.037 107.697 377.051 106.284 376.303 104.67C375.623 103.055 375.283 101.306 375.283 99.422C375.283 97.5382 375.623 95.789 376.303 94.1743C377.051 92.5596 378.037 91.1468 379.261 89.9358C380.485 88.7248 381.913 87.7829 383.545 87.1101C385.177 86.37 386.945 86 388.849 86H450.763C452.123 86 453.279 86.4709 454.231 87.4128C455.183 88.3547 455.659 89.4985 455.659 90.844C455.659 92.1896 455.183 93.3333 454.231 94.2752C453.279 95.2171 452.123 95.6881 450.763 95.6881H388.645C387.625 95.6881 386.707 96.0581 385.891 96.7982C385.143 97.4709 384.769 98.3456 384.769 99.422C384.769 100.431 385.143 101.306 385.891 102.046C386.707 102.786 387.625 103.156 388.645 103.156H445.051C446.955 103.156 448.723 103.526 450.355 104.266C452.055 104.939 453.517 105.881 454.741 107.092C455.965 108.303 456.917 109.749 457.597 111.431C458.345 113.046 458.719 114.795 458.719 116.679C458.719 118.563 458.345 120.312 457.597 121.927C456.917 123.541 455.965 124.954 454.741 126.165C453.517 127.376 452.055 128.318 450.355 128.991C448.723 129.664 446.955 130 445.051 130H383.239C381.879 130 380.723 129.529 379.771 128.587C378.819 127.645 378.343 126.502 378.343 125.156C378.343 123.81 378.819 122.667 379.771 121.725C380.723 120.783 381.879 120.312 383.239 120.312H445.459C446.479 120.312 447.363 119.976 448.111 119.303C448.859 118.563 449.233 117.688 449.233 116.679C449.233 115.602 448.859 114.694 448.111 113.954C447.363 113.214 446.479 112.844 445.459 112.844H388.849Z" fill="url(#paint2_linear_2_15292)"/>
<path d="M388.849 112.844C386.945 112.844 385.177 112.508 383.545 111.835C381.913 111.095 380.485 110.119 379.261 108.908C378.037 107.697 377.051 106.284 376.303 104.67C375.623 103.055 375.283 101.306 375.283 99.422C375.283 97.5382 375.623 95.789 376.303 94.1743C377.051 92.5596 378.037 91.1468 379.261 89.9358C380.485 88.7248 381.913 87.7829 383.545 87.1101C385.177 86.37 386.945 86 388.849 86H450.763C452.123 86 453.279 86.4709 454.231 87.4128C455.183 88.3547 455.659 89.4985 455.659 90.844C455.659 92.1896 455.183 93.3333 454.231 94.2752C453.279 95.2171 452.123 95.6881 450.763 95.6881H388.645C387.625 95.6881 386.707 96.0581 385.891 96.7982C385.143 97.4709 384.769 98.3456 384.769 99.422C384.769 100.431 385.143 101.306 385.891 102.046C386.707 102.786 387.625 103.156 388.645 103.156H445.051C446.955 103.156 448.723 103.526 450.355 104.266C452.055 104.939 453.517 105.881 454.741 107.092C455.965 108.303 456.917 109.749 457.597 111.431C458.345 113.046 458.719 114.795 458.719 116.679C458.719 118.563 458.345 120.312 457.597 121.927C456.917 123.541 455.965 124.954 454.741 126.165C453.517 127.376 452.055 128.318 450.355 128.991C448.723 129.664 446.955 130 445.051 130H383.239C381.879 130 380.723 129.529 379.771 128.587C378.819 127.645 378.343 126.502 378.343 125.156C378.343 123.81 378.819 122.667 379.771 121.725C380.723 120.783 381.879 120.312 383.239 120.312H445.459C446.479 120.312 447.363 119.976 448.111 119.303C448.859 118.563 449.233 117.688 449.233 116.679C449.233 115.602 448.859 114.694 448.111 113.954C447.363 113.214 446.479 112.844 445.459 112.844H388.849Z" fill="#C5DCF1"/>
</g>
<g filter="url(#filter4_dii_2_15292)">
<path d="M295.027 103.156H318.589C322.125 103.156 325.593 102.719 328.993 101.844C332.393 100.902 335.691 99.6911 338.887 98.211C342.151 96.7309 345.244 95.0489 348.168 93.1651C351.16 91.2813 354.016 89.3639 356.736 87.4128C357.892 86.4709 359.048 86 360.204 86C361.564 86 362.72 86.4709 363.672 87.4128C364.624 88.3547 365.1 89.4985 365.1 90.844C365.1 91.7859 364.828 92.6269 364.284 93.367C363.74 94.0398 363.094 94.6453 362.346 95.1835C360.578 96.529 358.878 97.8073 357.246 99.0183C355.614 100.162 353.982 101.239 352.35 102.248C350.718 103.257 349.018 104.232 347.25 105.174C345.55 106.116 343.715 107.058 341.743 108C343.715 108.942 345.55 109.884 347.25 110.826C349.018 111.768 350.718 112.743 352.35 113.752C353.982 114.761 355.614 115.872 357.246 117.083C358.878 118.226 360.578 119.471 362.346 120.817C363.094 121.355 363.74 121.994 364.284 122.734C364.828 123.407 365.1 124.214 365.1 125.156C365.1 126.502 364.624 127.645 363.672 128.587C362.72 129.529 361.564 130 360.204 130C359.048 130 357.892 129.529 356.736 128.587C353.948 126.569 351.058 124.618 348.066 122.734C345.142 120.85 342.083 119.168 338.887 117.688C335.691 116.208 332.393 115.031 328.993 114.156C325.593 113.281 322.125 112.844 318.589 112.844H295.027V125.156C295.027 126.502 294.551 127.645 293.599 128.587C292.647 129.529 291.525 130 290.233 130C288.873 130 287.717 129.529 286.765 128.587C285.813 127.645 285.337 126.502 285.337 125.156V90.844C285.337 89.4985 285.813 88.3547 286.765 87.4128C287.717 86.4709 288.839 86 290.131 86C291.491 86 292.647 86.4709 293.599 87.4128C294.551 88.3547 295.027 89.4985 295.027 90.844V103.156Z" fill="url(#paint3_linear_2_15292)"/>
<path d="M295.027 103.156H318.589C322.125 103.156 325.593 102.719 328.993 101.844C332.393 100.902 335.691 99.6911 338.887 98.211C342.151 96.7309 345.244 95.0489 348.168 93.1651C351.16 91.2813 354.016 89.3639 356.736 87.4128C357.892 86.4709 359.048 86 360.204 86C361.564 86 362.72 86.4709 363.672 87.4128C364.624 88.3547 365.1 89.4985 365.1 90.844C365.1 91.7859 364.828 92.6269 364.284 93.367C363.74 94.0398 363.094 94.6453 362.346 95.1835C360.578 96.529 358.878 97.8073 357.246 99.0183C355.614 100.162 353.982 101.239 352.35 102.248C350.718 103.257 349.018 104.232 347.25 105.174C345.55 106.116 343.715 107.058 341.743 108C343.715 108.942 345.55 109.884 347.25 110.826C349.018 111.768 350.718 112.743 352.35 113.752C353.982 114.761 355.614 115.872 357.246 117.083C358.878 118.226 360.578 119.471 362.346 120.817C363.094 121.355 363.74 121.994 364.284 122.734C364.828 123.407 365.1 124.214 365.1 125.156C365.1 126.502 364.624 127.645 363.672 128.587C362.72 129.529 361.564 130 360.204 130C359.048 130 357.892 129.529 356.736 128.587C353.948 126.569 351.058 124.618 348.066 122.734C345.142 120.85 342.083 119.168 338.887 117.688C335.691 116.208 332.393 115.031 328.993 114.156C325.593 113.281 322.125 112.844 318.589 112.844H295.027V125.156C295.027 126.502 294.551 127.645 293.599 128.587C292.647 129.529 291.525 130 290.233 130C288.873 130 287.717 129.529 286.765 128.587C285.813 127.645 285.337 126.502 285.337 125.156V90.844C285.337 89.4985 285.813 88.3547 286.765 87.4128C287.717 86.4709 288.839 86 290.131 86C291.491 86 292.647 86.4709 293.599 87.4128C294.551 88.3547 295.027 89.4985 295.027 90.844V103.156Z" fill="#C5DCF1"/>
</g>
<g filter="url(#filter5_dii_2_15292)">
<path d="M193 90.844C193 89.4985 193.476 88.3547 194.428 87.4128C195.38 86.4709 196.536 86 197.896 86H270.213C271.573 86 272.729 86.4709 273.681 87.4128C274.633 88.3547 275.109 89.4985 275.109 90.844C275.109 92.1896 274.633 93.3333 273.681 94.2752C272.729 95.2171 271.573 95.6881 270.213 95.6881H197.896C196.536 95.6881 195.38 95.2171 194.428 94.2752C193.476 93.3333 193 92.1896 193 90.844ZM205.444 130C203.948 130 202.452 129.697 200.956 129.092C199.46 128.419 198.134 127.511 196.978 126.367C195.822 125.223 194.87 123.844 194.122 122.229C193.374 120.615 193 118.798 193 116.78V107.697C193 105.881 193.51 104.67 194.53 104.064C195.618 103.459 197.284 103.156 199.528 103.156H267.969C269.329 103.156 270.485 103.627 271.437 104.569C272.389 105.511 272.865 106.654 272.865 108C272.865 109.346 272.389 110.489 271.437 111.431C270.485 112.373 269.329 112.844 267.969 112.844H202.792V117.789C202.792 118.462 203.064 119.067 203.608 119.606C204.22 120.076 205.002 120.312 205.954 120.312H270.213C271.573 120.312 272.729 120.783 273.681 121.725C274.633 122.667 275.109 123.81 275.109 125.156C275.109 126.502 274.633 127.645 273.681 128.587C272.729 129.529 271.573 130 270.213 130H205.444Z" fill="url(#paint4_linear_2_15292)"/>
<path d="M193 90.844C193 89.4985 193.476 88.3547 194.428 87.4128C195.38 86.4709 196.536 86 197.896 86H270.213C271.573 86 272.729 86.4709 273.681 87.4128C274.633 88.3547 275.109 89.4985 275.109 90.844C275.109 92.1896 274.633 93.3333 273.681 94.2752C272.729 95.2171 271.573 95.6881 270.213 95.6881H197.896C196.536 95.6881 195.38 95.2171 194.428 94.2752C193.476 93.3333 193 92.1896 193 90.844ZM205.444 130C203.948 130 202.452 129.697 200.956 129.092C199.46 128.419 198.134 127.511 196.978 126.367C195.822 125.223 194.87 123.844 194.122 122.229C193.374 120.615 193 118.798 193 116.78V107.697C193 105.881 193.51 104.67 194.53 104.064C195.618 103.459 197.284 103.156 199.528 103.156H267.969C269.329 103.156 270.485 103.627 271.437 104.569C272.389 105.511 272.865 106.654 272.865 108C272.865 109.346 272.389 110.489 271.437 111.431C270.485 112.373 269.329 112.844 267.969 112.844H202.792V117.789C202.792 118.462 203.064 119.067 203.608 119.606C204.22 120.076 205.002 120.312 205.954 120.312H270.213C271.573 120.312 272.729 120.783 273.681 121.725C274.633 122.667 275.109 123.81 275.109 125.156C275.109 126.502 274.633 127.645 273.681 128.587C272.729 129.529 271.573 130 270.213 130H205.444Z" fill="#C5DCF1"/>
</g>
</g>
<defs>
<filter id="filter0_d_2_15292" x="193" y="86" width="452" height="46" filterUnits="userSpaceOnUse" color-interpolation-filters="sRGB">
<feFlood flood-opacity="0" result="BackgroundImageFix"/>
<feColorMatrix in="SourceAlpha" type="matrix" values="0 0 0 0 0 0 0 0 0 0 0 0 0 0 0 0 0 0 127 0" result="hardAlpha"/>
<feOffset dy="2"/>
<feComposite in2="hardAlpha" operator="out"/>
<feColorMatrix type="matrix" values="0 0 0 0 0.821514 0 0 0 0 0.685624 0 0 0 0 0.792906 0 0 0 1 0"/>
<feBlend mode="normal" in2="BackgroundImageFix" result="effect1_dropShadow_2_15292"/>
<feBlend mode="normal" in="SourceGraphic" in2="effect1_dropShadow_2_15292" result="shape"/>
</filter>
<filter id="filter1_dii_2_15292" x="560.237" y="82" width="90.7632" height="55" filterUnits="userSpaceOnUse" color-interpolation-filters="sRGB">
<feFlood flood-opacity="0" result="BackgroundImageFix"/>
<feColorMatrix in="SourceAlpha" type="matrix" values="0 0 0 0 0 0 0 0 0 0 0 0 0 0 0 0 0 0 127 0" result="hardAlpha"/>
<feOffset dy="2"/>
<feGaussianBlur stdDeviation="2.5"/>
<feComposite in2="hardAlpha" operator="out"/>
<feColorMatrix type="matrix" values="0 0 0 0 0 0 0 0 0 0 0 0 0 0 0 0 0 0 0.18 0"/>
<feBlend mode="normal" in2="BackgroundImageFix" result="effect1_dropShadow_2_15292"/>
<feBlend mode="normal" in="SourceGraphic" in2="effect1_dropShadow_2_15292" result="shape"/>
<feColorMatrix in="SourceAlpha" type="matrix" values="0 0 0 0 0 0 0 0 0 0 0 0 0 0 0 0 0 0 127 0" result="hardAlpha"/>
<feOffset dy="-4"/>
<feGaussianBlur stdDeviation="2"/>
<feComposite in2="hardAlpha" operator="arithmetic" k2="-1" k3="1"/>
<feColorMatrix type="matrix" values="0 0 0 0 1 0 0 0 0 1 0 0 0 0 1 0 0 0 0.61 0"/>
<feBlend mode="normal" in2="shape" result="effect2_innerShadow_2_15292"/>
<feColorMatrix in="SourceAlpha" type="matrix" values="0 0 0 0 0 0 0 0 0 0 0 0 0 0 0 0 0 0 127 0" result="hardAlpha"/>
<feOffset dx="6" dy="4"/>
<feGaussianBlur stdDeviation="3"/>
<feComposite in2="hardAlpha" operator="arithmetic" k2="-1" k3="1"/>
<feColorMatrix type="matrix" values="0 0 0 0 0.954646 0 0 0 0 0.159365 0 0 0 0 0.716062 0 0 0 0.25 0"/>
<feBlend mode="normal" in2="effect2_innerShadow_2_15292" result="effect3_innerShadow_2_15292"/>
</filter>
<filter id="filter2_dii_2_15292" x="463.916" y="82" width="97.0872" height="55" filterUnits="userSpaceOnUse" color-interpolation-filters="sRGB">
<feFlood flood-opacity="0" result="BackgroundImageFix"/>
<feColorMatrix in="SourceAlpha" type="matrix" values="0 0 0 0 0 0 0 0 0 0 0 0 0 0 0 0 0 0 127 0" result="hardAlpha"/>
<feOffset dy="2"/>
<feGaussianBlur stdDeviation="2.5"/>
<feComposite in2="hardAlpha" operator="out"/>
<feColorMatrix type="matrix" values="0 0 0 0 0 0 0 0 0 0 0 0 0 0 0 0 0 0 0.18 0"/>
<feBlend mode="normal" in2="BackgroundImageFix" result="effect1_dropShadow_2_15292"/>
<feBlend mode="normal" in="SourceGraphic" in2="effect1_dropShadow_2_15292" result="shape"/>
<feColorMatrix in="SourceAlpha" type="matrix" values="0 0 0 0 0 0 0 0 0 0 0 0 0 0 0 0 0 0 127 0" result="hardAlpha"/>
<feOffset dy="-4"/>
<feGaussianBlur stdDeviation="2"/>
<feComposite in2="hardAlpha" operator="arithmetic" k2="-1" k3="1"/>
<feColorMatrix type="matrix" values="0 0 0 0 1 0 0 0 0 1 0 0 0 0 1 0 0 0 0.61 0"/>
<feBlend mode="normal" in2="shape" result="effect2_innerShadow_2_15292"/>
<feColorMatrix in="SourceAlpha" type="matrix" values="0 0 0 0 0 0 0 0 0 0 0 0 0 0 0 0 0 0 127 0" result="hardAlpha"/>
<feOffset dx="6" dy="4"/>
<feGaussianBlur stdDeviation="3"/>
<feComposite in2="hardAlpha" operator="arithmetic" k2="-1" k3="1"/>
<feColorMatrix type="matrix" values="0 0 0 0 0.954646 0 0 0 0 0.159365 0 0 0 0 0.716062 0 0 0 0.25 0"/>
<feBlend mode="normal" in2="effect2_innerShadow_2_15292" result="effect3_innerShadow_2_15292"/>
</filter>
<filter id="filter3_dii_2_15292" x="370.283" y="82" width="94.4352" height="55" filterUnits="userSpaceOnUse" color-interpolation-filters="sRGB">
<feFlood flood-opacity="0" result="BackgroundImageFix"/>
<feColorMatrix in="SourceAlpha" type="matrix" values="0 0 0 0 0 0 0 0 0 0 0 0 0 0 0 0 0 0 127 0" result="hardAlpha"/>
<feOffset dy="2"/>
<feGaussianBlur stdDeviation="2.5"/>
<feComposite in2="hardAlpha" operator="out"/>
<feColorMatrix type="matrix" values="0 0 0 0 0 0 0 0 0 0 0 0 0 0 0 0 0 0 0.18 0"/>
<feBlend mode="normal" in2="BackgroundImageFix" result="effect1_dropShadow_2_15292"/>
<feBlend mode="normal" in="SourceGraphic" in2="effect1_dropShadow_2_15292" result="shape"/>
<feColorMatrix in="SourceAlpha" type="matrix" values="0 0 0 0 0 0 0 0 0 0 0 0 0 0 0 0 0 0 127 0" result="hardAlpha"/>
<feOffset dy="-4"/>
<feGaussianBlur stdDeviation="2"/>
<feComposite in2="hardAlpha" operator="arithmetic" k2="-1" k3="1"/>
<feColorMatrix type="matrix" values="0 0 0 0 1 0 0 0 0 1 0 0 0 0 1 0 0 0 0.61 0"/>
<feBlend mode="normal" in2="shape" result="effect2_innerShadow_2_15292"/>
<feColorMatrix in="SourceAlpha" type="matrix" values="0 0 0 0 0 0 0 0 0 0 0 0 0 0 0 0 0 0 127 0" result="hardAlpha"/>
<feOffset dx="6" dy="4"/>
<feGaussianBlur stdDeviation="3"/>
<feComposite in2="hardAlpha" operator="arithmetic" k2="-1" k3="1"/>
<feColorMatrix type="matrix" values="0 0 0 0 0.954646 0 0 0 0 0.159365 0 0 0 0 0.716062 0 0 0 0.25 0"/>
<feBlend mode="normal" in2="effect2_innerShadow_2_15292" result="effect3_innerShadow_2_15292"/>
</filter>
<filter id="filter4_dii_2_15292" x="280.337" y="82" width="90.7633" height="55" filterUnits="userSpaceOnUse" color-interpolation-filters="sRGB">
<feFlood flood-opacity="0" result="BackgroundImageFix"/>
<feColorMatrix in="SourceAlpha" type="matrix" values="0 0 0 0 0 0 0 0 0 0 0 0 0 0 0 0 0 0 127 0" result="hardAlpha"/>
<feOffset dy="2"/>
<feGaussianBlur stdDeviation="2.5"/>
<feComposite in2="hardAlpha" operator="out"/>
<feColorMatrix type="matrix" values="0 0 0 0 0 0 0 0 0 0 0 0 0 0 0 0 0 0 0.18 0"/>
<feBlend mode="normal" in2="BackgroundImageFix" result="effect1_dropShadow_2_15292"/>
<feBlend mode="normal" in="SourceGraphic" in2="effect1_dropShadow_2_15292" result="shape"/>
<feColorMatrix in="SourceAlpha" type="matrix" values="0 0 0 0 0 0 0 0 0 0 0 0 0 0 0 0 0 0 127 0" result="hardAlpha"/>
<feOffset dy="-4"/>
<feGaussianBlur stdDeviation="2"/>
<feComposite in2="hardAlpha" operator="arithmetic" k2="-1" k3="1"/>
<feColorMatrix type="matrix" values="0 0 0 0 1 0 0 0 0 1 0 0 0 0 1 0 0 0 0.61 0"/>
<feBlend mode="normal" in2="shape" result="effect2_innerShadow_2_15292"/>
<feColorMatrix in="SourceAlpha" type="matrix" values="0 0 0 0 0 0 0 0 0 0 0 0 0 0 0 0 0 0 127 0" result="hardAlpha"/>
<feOffset dx="6" dy="4"/>
<feGaussianBlur stdDeviation="3"/>
<feComposite in2="hardAlpha" operator="arithmetic" k2="-1" k3="1"/>
<feColorMatrix type="matrix" values="0 0 0 0 0.954646 0 0 0 0 0.159365 0 0 0 0 0.716062 0 0 0 0.25 0"/>
<feBlend mode="normal" in2="effect2_innerShadow_2_15292" result="effect3_innerShadow_2_15292"/>
</filter>
<filter id="filter5_dii_2_15292" x="188" y="82" width="93.1093" height="55" filterUnits="userSpaceOnUse" color-interpolation-filters="sRGB">
<feFlood flood-opacity="0" result="BackgroundImageFix"/>
<feColorMatrix in="SourceAlpha" type="matrix" values="0 0 0 0 0 0 0 0 0 0 0 0 0 0 0 0 0 0 127 0" result="hardAlpha"/>
<feOffset dy="2"/>
<feGaussianBlur stdDeviation="2.5"/>
<feComposite in2="hardAlpha" operator="out"/>
<feColorMatrix type="matrix" values="0 0 0 0 0 0 0 0 0 0 0 0 0 0 0 0 0 0 0.18 0"/>
<feBlend mode="normal" in2="BackgroundImageFix" result="effect1_dropShadow_2_15292"/>
<feBlend mode="normal" in="SourceGraphic" in2="effect1_dropShadow_2_15292" result="shape"/>
<feColorMatrix in="SourceAlpha" type="matrix" values="0 0 0 0 0 0 0 0 0 0 0 0 0 0 0 0 0 0 127 0" result="hardAlpha"/>
<feOffset dy="-4"/>
<feGaussianBlur stdDeviation="2"/>
<feComposite in2="hardAlpha" operator="arithmetic" k2="-1" k3="1"/>
<feColorMatrix type="matrix" values="0 0 0 0 1 0 0 0 0 1 0 0 0 0 1 0 0 0 0.61 0"/>
<feBlend mode="normal" in2="shape" result="effect2_innerShadow_2_15292"/>
<feColorMatrix in="SourceAlpha" type="matrix" values="0 0 0 0 0 0 0 0 0 0 0 0 0 0 0 0 0 0 127 0" result="hardAlpha"/>
<feOffset dx="6" dy="4"/>
<feGaussianBlur stdDeviation="3"/>
<feComposite in2="hardAlpha" operator="arithmetic" k2="-1" k3="1"/>
<feColorMatrix type="matrix" values="0 0 0 0 0.954646 0 0 0 0 0.159365 0 0 0 0 0.716062 0 0 0 0.25 0"/>
<feBlend mode="normal" in2="effect2_innerShadow_2_15292" result="effect3_innerShadow_2_15292"/>
</filter>
<linearGradient id="paint0_linear_2_15292" x1="642.856" y1="72.8697" x2="642.856" y2="152.288" gradientUnits="userSpaceOnUse">
<stop stop-color="#7F7C80"/>
<stop offset="0.543269" stop-color="#A0A0A0"/>
<stop offset="0.572115" stop-color="#2D2A2E"/>
<stop offset="1" stop-color="#7D7D7D"/>
</linearGradient>
<linearGradient id="paint1_linear_2_15292" x1="552.688" y1="72.8697" x2="552.688" y2="152.288" gradientUnits="userSpaceOnUse">
<stop stop-color="#7F7C80"/>
<stop offset="0.543269" stop-color="#A0A0A0"/>
<stop offset="0.572115" stop-color="#2D2A2E"/>
<stop offset="1" stop-color="#7D7D7D"/>
</linearGradient>
<linearGradient id="paint2_linear_2_15292" x1="456.476" y1="72.8697" x2="456.476" y2="152.288" gradientUnits="userSpaceOnUse">
<stop stop-color="#7F7C80"/>
<stop offset="0.543269" stop-color="#A0A0A0"/>
<stop offset="0.572115" stop-color="#2D2A2E"/>
<stop offset="1" stop-color="#7D7D7D"/>
</linearGradient>
<linearGradient id="paint3_linear_2_15292" x1="362.956" y1="72.8697" x2="362.956" y2="152.288" gradientUnits="userSpaceOnUse">
<stop stop-color="#7F7C80"/>
<stop offset="0.543269" stop-color="#A0A0A0"/>
<stop offset="0.572115" stop-color="#2D2A2E"/>
<stop offset="1" stop-color="#7D7D7D"/>
</linearGradient>
<linearGradient id="paint4_linear_2_15292" x1="272.902" y1="72.8697" x2="272.902" y2="152.288" gradientUnits="userSpaceOnUse">
<stop stop-color="#7F7C80"/>
<stop offset="0.543269" stop-color="#A0A0A0"/>
<stop offset="0.572115" stop-color="#2D2A2E"/>
<stop offset="1" stop-color="#7D7D7D"/>
</linearGradient>
</defs>
</svg>
