<svg width="462" height="54" viewBox="0 0 462 54" fill="none" xmlns="http://www.w3.org/2000/svg">
<g filter="url(#filter0_dii_2_15283)">
<path d="M391.211 47C389.307 47 387.505 46.6636 385.805 45.9908C384.105 45.2508 382.609 44.2752 381.317 43.0642C380.093 41.8532 379.107 40.4404 378.359 38.8257C377.611 37.211 377.237 35.4618 377.237 33.578V7.84403C377.237 6.49847 377.713 5.35474 378.665 4.41284C379.617 3.47095 380.773 3 382.133 3C383.425 3 384.547 3.47095 385.499 4.41284C386.519 5.35474 387.029 6.49847 387.029 7.84403V33.578C387.029 34.5872 387.403 35.4618 388.151 36.2018C388.967 36.9419 389.885 37.3119 390.905 37.3119H452.104C453.464 37.3119 454.62 37.7829 455.572 38.7248C456.524 39.6667 457 40.8104 457 42.156C457 43.5015 456.524 44.6453 455.572 45.5872C454.62 46.5291 453.464 47 452.104 47H391.211Z" fill="url(#paint0_linear_2_15283)"/>
<path d="M391.211 47C389.307 47 387.505 46.6636 385.805 45.9908C384.105 45.2508 382.609 44.2752 381.317 43.0642C380.093 41.8532 379.107 40.4404 378.359 38.8257C377.611 37.211 377.237 35.4618 377.237 33.578V7.84403C377.237 6.49847 377.713 5.35474 378.665 4.41284C379.617 3.47095 380.773 3 382.133 3C383.425 3 384.547 3.47095 385.499 4.41284C386.519 5.35474 387.029 6.49847 387.029 7.84403V33.578C387.029 34.5872 387.403 35.4618 388.151 36.2018C388.967 36.9419 389.885 37.3119 390.905 37.3119H452.104C453.464 37.3119 454.62 37.7829 455.572 38.7248C456.524 39.6667 457 40.8104 457 42.156C457 43.5015 456.524 44.6453 455.572 45.5872C454.62 46.5291 453.464 47 452.104 47H391.211Z" fill="#3C2A93"/>
</g>
<g filter="url(#filter1_dii_2_15283)">
<path d="M367.003 42.156C367.003 43.5015 366.527 44.6453 365.575 45.5872C364.623 46.5291 363.467 47 362.107 47C360.747 47 359.591 46.5291 358.639 45.5872C357.687 44.6453 357.211 43.5015 357.211 42.156V20.156C357.211 17.3975 357.041 16.0183 356.701 16.0183C356.429 16.0183 355.477 16.9266 353.845 18.7431L331.405 43.9725C330.521 44.9816 329.433 45.7553 328.141 46.2936C326.849 46.7645 325.455 47 323.959 47C322.463 47 321.069 46.7645 319.777 46.2936C318.485 45.7553 317.397 44.9816 316.513 43.9725L294.073 18.7431C292.509 16.9266 291.557 16.0183 291.217 16.0183C290.877 16.0183 290.707 17.3975 290.707 20.156V42.156C290.707 43.5015 290.231 44.6453 289.279 45.5872C288.327 46.5291 287.171 47 285.811 47C284.451 47 283.295 46.5291 282.343 45.5872C281.391 44.6453 280.915 43.5015 280.915 42.156V12.6881C280.915 9.99694 281.697 7.70948 283.261 5.82569C284.825 3.9419 286.967 3 289.687 3C291.319 3 292.781 3.40367 294.073 4.21101C295.365 5.01835 296.555 5.99388 297.643 7.13761L321.103 33.578C321.443 33.9144 321.851 34.2844 322.327 34.6881C322.871 35.0245 323.415 35.1927 323.959 35.1927C324.503 35.1927 325.013 35.0245 325.489 34.6881C326.033 34.2844 326.475 33.9144 326.815 33.578L350.173 7.13761H350.275C351.227 5.85933 352.383 4.85015 353.743 4.11009C355.103 3.37003 356.599 3 358.231 3C360.951 3 363.093 3.9419 364.657 5.82569C366.221 7.70948 367.003 9.99694 367.003 12.6881V42.156Z" fill="url(#paint1_linear_2_15283)"/>
<path d="M367.003 42.156C367.003 43.5015 366.527 44.6453 365.575 45.5872C364.623 46.5291 363.467 47 362.107 47C360.747 47 359.591 46.5291 358.639 45.5872C357.687 44.6453 357.211 43.5015 357.211 42.156V20.156C357.211 17.3975 357.041 16.0183 356.701 16.0183C356.429 16.0183 355.477 16.9266 353.845 18.7431L331.405 43.9725C330.521 44.9816 329.433 45.7553 328.141 46.2936C326.849 46.7645 325.455 47 323.959 47C322.463 47 321.069 46.7645 319.777 46.2936C318.485 45.7553 317.397 44.9816 316.513 43.9725L294.073 18.7431C292.509 16.9266 291.557 16.0183 291.217 16.0183C290.877 16.0183 290.707 17.3975 290.707 20.156V42.156C290.707 43.5015 290.231 44.6453 289.279 45.5872C288.327 46.5291 287.171 47 285.811 47C284.451 47 283.295 46.5291 282.343 45.5872C281.391 44.6453 280.915 43.5015 280.915 42.156V12.6881C280.915 9.99694 281.697 7.70948 283.261 5.82569C284.825 3.9419 286.967 3 289.687 3C291.319 3 292.781 3.40367 294.073 4.21101C295.365 5.01835 296.555 5.99388 297.643 7.13761L321.103 33.578C321.443 33.9144 321.851 34.2844 322.327 34.6881C322.871 35.0245 323.415 35.1927 323.959 35.1927C324.503 35.1927 325.013 35.0245 325.489 34.6881C326.033 34.2844 326.475 33.9144 326.815 33.578L350.173 7.13761H350.275C351.227 5.85933 352.383 4.85015 353.743 4.11009C355.103 3.37003 356.599 3 358.231 3C360.951 3 363.093 3.9419 364.657 5.82569C366.221 7.70948 367.003 9.99694 367.003 12.6881V42.156Z" fill="#3C2A93"/>
</g>
<g filter="url(#filter2_dii_2_15283)">
<path d="M200.849 29.844C198.945 29.844 197.177 29.5076 195.545 28.8349C193.913 28.0948 192.485 27.1193 191.261 25.9083C190.037 24.6972 189.051 23.2844 188.303 21.6697C187.623 20.055 187.283 18.3058 187.283 16.422C187.283 14.5382 187.623 12.789 188.303 11.1743C189.051 9.55963 190.037 8.14679 191.261 6.93578C192.485 5.72477 193.913 4.78287 195.545 4.11009C197.177 3.37003 198.945 3 200.849 3H262.763C264.123 3 265.279 3.47095 266.231 4.41284C267.183 5.35474 267.659 6.49847 267.659 7.84403C267.659 9.1896 267.183 10.3333 266.231 11.2752C265.279 12.2171 264.123 12.6881 262.763 12.6881H200.645C199.625 12.6881 198.707 13.0581 197.891 13.7982C197.143 14.4709 196.769 15.3456 196.769 16.422C196.769 17.4312 197.143 18.3058 197.891 19.0459C198.707 19.7859 199.625 20.156 200.645 20.156H257.051C258.955 20.156 260.723 20.526 262.355 21.2661C264.055 21.9388 265.517 22.8807 266.741 24.0917C267.965 25.3028 268.917 26.7492 269.597 28.4312C270.345 30.0459 270.719 31.7951 270.719 33.6789C270.719 35.5627 270.345 37.3119 269.597 38.9266C268.917 40.5413 267.965 41.9541 266.741 43.1651C265.517 44.3761 264.055 45.318 262.355 45.9908C260.723 46.6636 258.955 47 257.051 47H195.239C193.879 47 192.723 46.5291 191.771 45.5872C190.819 44.6453 190.343 43.5015 190.343 42.156C190.343 40.8104 190.819 39.6667 191.771 38.7248C192.723 37.7829 193.879 37.3119 195.239 37.3119H257.459C258.479 37.3119 259.363 36.9755 260.111 36.3027C260.859 35.5627 261.233 34.6881 261.233 33.6789C261.233 32.6024 260.859 31.6942 260.111 30.9541C259.363 30.2141 258.479 29.844 257.459 29.844H200.849Z" fill="url(#paint2_linear_2_15283)"/>
<path d="M200.849 29.844C198.945 29.844 197.177 29.5076 195.545 28.8349C193.913 28.0948 192.485 27.1193 191.261 25.9083C190.037 24.6972 189.051 23.2844 188.303 21.6697C187.623 20.055 187.283 18.3058 187.283 16.422C187.283 14.5382 187.623 12.789 188.303 11.1743C189.051 9.55963 190.037 8.14679 191.261 6.93578C192.485 5.72477 193.913 4.78287 195.545 4.11009C197.177 3.37003 198.945 3 200.849 3H262.763C264.123 3 265.279 3.47095 266.231 4.41284C267.183 5.35474 267.659 6.49847 267.659 7.84403C267.659 9.1896 267.183 10.3333 266.231 11.2752C265.279 12.2171 264.123 12.6881 262.763 12.6881H200.645C199.625 12.6881 198.707 13.0581 197.891 13.7982C197.143 14.4709 196.769 15.3456 196.769 16.422C196.769 17.4312 197.143 18.3058 197.891 19.0459C198.707 19.7859 199.625 20.156 200.645 20.156H257.051C258.955 20.156 260.723 20.526 262.355 21.2661C264.055 21.9388 265.517 22.8807 266.741 24.0917C267.965 25.3028 268.917 26.7492 269.597 28.4312C270.345 30.0459 270.719 31.7951 270.719 33.6789C270.719 35.5627 270.345 37.3119 269.597 38.9266C268.917 40.5413 267.965 41.9541 266.741 43.1651C265.517 44.3761 264.055 45.318 262.355 45.9908C260.723 46.6636 258.955 47 257.051 47H195.239C193.879 47 192.723 46.5291 191.771 45.5872C190.819 44.6453 190.343 43.5015 190.343 42.156C190.343 40.8104 190.819 39.6667 191.771 38.7248C192.723 37.7829 193.879 37.3119 195.239 37.3119H257.459C258.479 37.3119 259.363 36.9755 260.111 36.3027C260.859 35.5627 261.233 34.6881 261.233 33.6789C261.233 32.6024 260.859 31.6942 260.111 30.9541C259.363 30.2141 258.479 29.844 257.459 29.844H200.849Z" fill="#3C2A93"/>
</g>
<g filter="url(#filter3_dii_2_15283)">
<path d="M107.027 20.156H130.589C134.125 20.156 137.593 19.7187 140.993 18.844C144.393 17.9021 147.691 16.6911 150.887 15.211C154.151 13.7309 157.244 12.0489 160.168 10.1651C163.16 8.28134 166.016 6.36391 168.736 4.41284C169.892 3.47095 171.048 3 172.204 3C173.564 3 174.72 3.47095 175.672 4.41284C176.624 5.35474 177.1 6.49847 177.1 7.84403C177.1 8.78593 176.828 9.62691 176.284 10.367C175.74 11.0398 175.094 11.6453 174.346 12.1835C172.578 13.529 170.878 14.8073 169.246 16.0183C167.614 17.1621 165.982 18.2385 164.35 19.2477C162.718 20.2569 161.018 21.2324 159.25 22.1743C157.55 23.1162 155.715 24.0581 153.743 25C155.715 25.9419 157.55 26.8838 159.25 27.8257C161.018 28.7676 162.718 29.7431 164.35 30.7523C165.982 31.7615 167.614 32.8716 169.246 34.0826C170.878 35.2263 172.578 36.4709 174.346 37.8165C175.094 38.3547 175.74 38.9939 176.284 39.7339C176.828 40.4067 177.1 41.2141 177.1 42.156C177.1 43.5015 176.624 44.6453 175.672 45.5872C174.72 46.5291 173.564 47 172.204 47C171.048 47 169.892 46.5291 168.736 45.5872C165.948 43.5688 163.058 41.6177 160.066 39.7339C157.142 37.8502 154.083 36.1682 150.887 34.6881C147.691 33.208 144.393 32.0306 140.993 31.156C137.593 30.2813 134.125 29.844 130.589 29.844H107.027V42.156C107.027 43.5015 106.551 44.6453 105.599 45.5872C104.647 46.5291 103.525 47 102.233 47C100.873 47 99.717 46.5291 98.765 45.5872C97.813 44.6453 97.337 43.5015 97.337 42.156V7.84403C97.337 6.49847 97.813 5.35474 98.765 4.41284C99.717 3.47095 100.839 3 102.131 3C103.491 3 104.647 3.47095 105.599 4.41284C106.551 5.35474 107.027 6.49847 107.027 7.84403V20.156Z" fill="url(#paint3_linear_2_15283)"/>
<path d="M107.027 20.156H130.589C134.125 20.156 137.593 19.7187 140.993 18.844C144.393 17.9021 147.691 16.6911 150.887 15.211C154.151 13.7309 157.244 12.0489 160.168 10.1651C163.16 8.28134 166.016 6.36391 168.736 4.41284C169.892 3.47095 171.048 3 172.204 3C173.564 3 174.72 3.47095 175.672 4.41284C176.624 5.35474 177.1 6.49847 177.1 7.84403C177.1 8.78593 176.828 9.62691 176.284 10.367C175.74 11.0398 175.094 11.6453 174.346 12.1835C172.578 13.529 170.878 14.8073 169.246 16.0183C167.614 17.1621 165.982 18.2385 164.35 19.2477C162.718 20.2569 161.018 21.2324 159.25 22.1743C157.55 23.1162 155.715 24.0581 153.743 25C155.715 25.9419 157.55 26.8838 159.25 27.8257C161.018 28.7676 162.718 29.7431 164.35 30.7523C165.982 31.7615 167.614 32.8716 169.246 34.0826C170.878 35.2263 172.578 36.4709 174.346 37.8165C175.094 38.3547 175.74 38.9939 176.284 39.7339C176.828 40.4067 177.1 41.2141 177.1 42.156C177.1 43.5015 176.624 44.6453 175.672 45.5872C174.72 46.5291 173.564 47 172.204 47C171.048 47 169.892 46.5291 168.736 45.5872C165.948 43.5688 163.058 41.6177 160.066 39.7339C157.142 37.8502 154.083 36.1682 150.887 34.6881C147.691 33.208 144.393 32.0306 140.993 31.156C137.593 30.2813 134.125 29.844 130.589 29.844H107.027V42.156C107.027 43.5015 106.551 44.6453 105.599 45.5872C104.647 46.5291 103.525 47 102.233 47C100.873 47 99.717 46.5291 98.765 45.5872C97.813 44.6453 97.337 43.5015 97.337 42.156V7.84403C97.337 6.49847 97.813 5.35474 98.765 4.41284C99.717 3.47095 100.839 3 102.131 3C103.491 3 104.647 3.47095 105.599 4.41284C106.551 5.35474 107.027 6.49847 107.027 7.84403V20.156Z" fill="#3C2A93"/>
</g>
<g filter="url(#filter4_dii_2_15283)">
<path d="M5 7.84403C5 6.49847 5.476 5.35474 6.42799 4.41284C7.37998 3.47095 8.53597 3 9.89596 3H82.2133C83.5733 3 84.7293 3.47095 85.6813 4.41284C86.6332 5.35474 87.1092 6.49847 87.1092 7.84403C87.1092 9.1896 86.6332 10.3333 85.6813 11.2752C84.7293 12.2171 83.5733 12.6881 82.2133 12.6881H9.89596C8.53597 12.6881 7.37998 12.2171 6.42799 11.2752C5.476 10.3333 5 9.1896 5 7.84403ZM17.4439 47C15.9479 47 14.4519 46.6972 12.9559 46.0917C11.4599 45.419 10.134 44.5107 8.97796 43.367C7.82197 42.2232 6.86998 40.844 6.12199 39.2294C5.374 37.6147 5 35.7982 5 33.7798V24.6972C5 22.8807 5.51 21.6697 6.52999 21.0642C7.61798 20.4587 9.28396 20.156 11.5279 20.156H79.9693C81.3293 20.156 82.4853 20.6269 83.4373 21.5688C84.3893 22.5107 84.8653 23.6544 84.8653 25C84.8653 26.3456 84.3893 27.4893 83.4373 28.4312C82.4853 29.3731 81.3293 29.844 79.9693 29.844H14.7919V34.789C14.7919 35.4618 15.0639 36.0673 15.6079 36.6055C16.2199 37.0765 17.0019 37.3119 17.9539 37.3119H82.2133C83.5733 37.3119 84.7293 37.7829 85.6813 38.7248C86.6332 39.6667 87.1092 40.8104 87.1092 42.156C87.1092 43.5015 86.6332 44.6453 85.6813 45.5872C84.7293 46.5291 83.5733 47 82.2133 47H17.4439Z" fill="url(#paint4_linear_2_15283)"/>
<path d="M5 7.84403C5 6.49847 5.476 5.35474 6.42799 4.41284C7.37998 3.47095 8.53597 3 9.89596 3H82.2133C83.5733 3 84.7293 3.47095 85.6813 4.41284C86.6332 5.35474 87.1092 6.49847 87.1092 7.84403C87.1092 9.1896 86.6332 10.3333 85.6813 11.2752C84.7293 12.2171 83.5733 12.6881 82.2133 12.6881H9.89596C8.53597 12.6881 7.37998 12.2171 6.42799 11.2752C5.476 10.3333 5 9.1896 5 7.84403ZM17.4439 47C15.9479 47 14.4519 46.6972 12.9559 46.0917C11.4599 45.419 10.134 44.5107 8.97796 43.367C7.82197 42.2232 6.86998 40.844 6.12199 39.2294C5.374 37.6147 5 35.7982 5 33.7798V24.6972C5 22.8807 5.51 21.6697 6.52999 21.0642C7.61798 20.4587 9.28396 20.156 11.5279 20.156H79.9693C81.3293 20.156 82.4853 20.6269 83.4373 21.5688C84.3893 22.5107 84.8653 23.6544 84.8653 25C84.8653 26.3456 84.3893 27.4893 83.4373 28.4312C82.4853 29.3731 81.3293 29.844 79.9693 29.844H14.7919V34.789C14.7919 35.4618 15.0639 36.0673 15.6079 36.6055C16.2199 37.0765 17.0019 37.3119 17.9539 37.3119H82.2133C83.5733 37.3119 84.7293 37.7829 85.6813 38.7248C86.6332 39.6667 87.1092 40.8104 87.1092 42.156C87.1092 43.5015 86.6332 44.6453 85.6813 45.5872C84.7293 46.5291 83.5733 47 82.2133 47H17.4439Z" fill="#3C2A93"/>
</g>
<defs>
<filter id="filter0_dii_2_15283" x="372.237" y="-1" width="90.7632" height="55" filterUnits="userSpaceOnUse" color-interpolation-filters="sRGB">
<feFlood flood-opacity="0" result="BackgroundImageFix"/>
<feColorMatrix in="SourceAlpha" type="matrix" values="0 0 0 0 0 0 0 0 0 0 0 0 0 0 0 0 0 0 127 0" result="hardAlpha"/>
<feOffset dy="2"/>
<feGaussianBlur stdDeviation="2.5"/>
<feComposite in2="hardAlpha" operator="out"/>
<feColorMatrix type="matrix" values="0 0 0 0 0 0 0 0 0 0 0 0 0 0 0 0 0 0 0.18 0"/>
<feBlend mode="normal" in2="BackgroundImageFix" result="effect1_dropShadow_2_15283"/>
<feBlend mode="normal" in="SourceGraphic" in2="effect1_dropShadow_2_15283" result="shape"/>
<feColorMatrix in="SourceAlpha" type="matrix" values="0 0 0 0 0 0 0 0 0 0 0 0 0 0 0 0 0 0 127 0" result="hardAlpha"/>
<feOffset dy="-4"/>
<feGaussianBlur stdDeviation="2"/>
<feComposite in2="hardAlpha" operator="arithmetic" k2="-1" k3="1"/>
<feColorMatrix type="matrix" values="0 0 0 0 0.957144 0 0 0 0 0.515889 0 0 0 0 0.515889 0 0 0 0.51 0"/>
<feBlend mode="normal" in2="shape" result="effect2_innerShadow_2_15283"/>
<feColorMatrix in="SourceAlpha" type="matrix" values="0 0 0 0 0 0 0 0 0 0 0 0 0 0 0 0 0 0 127 0" result="hardAlpha"/>
<feOffset dx="6" dy="4"/>
<feGaussianBlur stdDeviation="3"/>
<feComposite in2="hardAlpha" operator="arithmetic" k2="-1" k3="1"/>
<feColorMatrix type="matrix" values="0 0 0 0 0.954646 0 0 0 0 0.159365 0 0 0 0 0.716062 0 0 0 0.25 0"/>
<feBlend mode="normal" in2="effect2_innerShadow_2_15283" result="effect3_innerShadow_2_15283"/>
</filter>
<filter id="filter1_dii_2_15283" x="275.915" y="-1" width="97.0873" height="55" filterUnits="userSpaceOnUse" color-interpolation-filters="sRGB">
<feFlood flood-opacity="0" result="BackgroundImageFix"/>
<feColorMatrix in="SourceAlpha" type="matrix" values="0 0 0 0 0 0 0 0 0 0 0 0 0 0 0 0 0 0 127 0" result="hardAlpha"/>
<feOffset dy="2"/>
<feGaussianBlur stdDeviation="2.5"/>
<feComposite in2="hardAlpha" operator="out"/>
<feColorMatrix type="matrix" values="0 0 0 0 0 0 0 0 0 0 0 0 0 0 0 0 0 0 0.18 0"/>
<feBlend mode="normal" in2="BackgroundImageFix" result="effect1_dropShadow_2_15283"/>
<feBlend mode="normal" in="SourceGraphic" in2="effect1_dropShadow_2_15283" result="shape"/>
<feColorMatrix in="SourceAlpha" type="matrix" values="0 0 0 0 0 0 0 0 0 0 0 0 0 0 0 0 0 0 127 0" result="hardAlpha"/>
<feOffset dy="-4"/>
<feGaussianBlur stdDeviation="2"/>
<feComposite in2="hardAlpha" operator="arithmetic" k2="-1" k3="1"/>
<feColorMatrix type="matrix" values="0 0 0 0 0.957144 0 0 0 0 0.515889 0 0 0 0 0.515889 0 0 0 0.51 0"/>
<feBlend mode="normal" in2="shape" result="effect2_innerShadow_2_15283"/>
<feColorMatrix in="SourceAlpha" type="matrix" values="0 0 0 0 0 0 0 0 0 0 0 0 0 0 0 0 0 0 127 0" result="hardAlpha"/>
<feOffset dx="6" dy="4"/>
<feGaussianBlur stdDeviation="3"/>
<feComposite in2="hardAlpha" operator="arithmetic" k2="-1" k3="1"/>
<feColorMatrix type="matrix" values="0 0 0 0 0.954646 0 0 0 0 0.159365 0 0 0 0 0.716062 0 0 0 0.25 0"/>
<feBlend mode="normal" in2="effect2_innerShadow_2_15283" result="effect3_innerShadow_2_15283"/>
</filter>
<filter id="filter2_dii_2_15283" x="182.283" y="-1" width="94.4352" height="55" filterUnits="userSpaceOnUse" color-interpolation-filters="sRGB">
<feFlood flood-opacity="0" result="BackgroundImageFix"/>
<feColorMatrix in="SourceAlpha" type="matrix" values="0 0 0 0 0 0 0 0 0 0 0 0 0 0 0 0 0 0 127 0" result="hardAlpha"/>
<feOffset dy="2"/>
<feGaussianBlur stdDeviation="2.5"/>
<feComposite in2="hardAlpha" operator="out"/>
<feColorMatrix type="matrix" values="0 0 0 0 0 0 0 0 0 0 0 0 0 0 0 0 0 0 0.18 0"/>
<feBlend mode="normal" in2="BackgroundImageFix" result="effect1_dropShadow_2_15283"/>
<feBlend mode="normal" in="SourceGraphic" in2="effect1_dropShadow_2_15283" result="shape"/>
<feColorMatrix in="SourceAlpha" type="matrix" values="0 0 0 0 0 0 0 0 0 0 0 0 0 0 0 0 0 0 127 0" result="hardAlpha"/>
<feOffset dy="-4"/>
<feGaussianBlur stdDeviation="2"/>
<feComposite in2="hardAlpha" operator="arithmetic" k2="-1" k3="1"/>
<feColorMatrix type="matrix" values="0 0 0 0 0.957144 0 0 0 0 0.515889 0 0 0 0 0.515889 0 0 0 0.51 0"/>
<feBlend mode="normal" in2="shape" result="effect2_innerShadow_2_15283"/>
<feColorMatrix in="SourceAlpha" type="matrix" values="0 0 0 0 0 0 0 0 0 0 0 0 0 0 0 0 0 0 127 0" result="hardAlpha"/>
<feOffset dx="6" dy="4"/>
<feGaussianBlur stdDeviation="3"/>
<feComposite in2="hardAlpha" operator="arithmetic" k2="-1" k3="1"/>
<feColorMatrix type="matrix" values="0 0 0 0 0.954646 0 0 0 0 0.159365 0 0 0 0 0.716062 0 0 0 0.25 0"/>
<feBlend mode="normal" in2="effect2_innerShadow_2_15283" result="effect3_innerShadow_2_15283"/>
</filter>
<filter id="filter3_dii_2_15283" x="92.337" y="-1" width="90.7633" height="55" filterUnits="userSpaceOnUse" color-interpolation-filters="sRGB">
<feFlood flood-opacity="0" result="BackgroundImageFix"/>
<feColorMatrix in="SourceAlpha" type="matrix" values="0 0 0 0 0 0 0 0 0 0 0 0 0 0 0 0 0 0 127 0" result="hardAlpha"/>
<feOffset dy="2"/>
<feGaussianBlur stdDeviation="2.5"/>
<feComposite in2="hardAlpha" operator="out"/>
<feColorMatrix type="matrix" values="0 0 0 0 0 0 0 0 0 0 0 0 0 0 0 0 0 0 0.18 0"/>
<feBlend mode="normal" in2="BackgroundImageFix" result="effect1_dropShadow_2_15283"/>
<feBlend mode="normal" in="SourceGraphic" in2="effect1_dropShadow_2_15283" result="shape"/>
<feColorMatrix in="SourceAlpha" type="matrix" values="0 0 0 0 0 0 0 0 0 0 0 0 0 0 0 0 0 0 127 0" result="hardAlpha"/>
<feOffset dy="-4"/>
<feGaussianBlur stdDeviation="2"/>
<feComposite in2="hardAlpha" operator="arithmetic" k2="-1" k3="1"/>
<feColorMatrix type="matrix" values="0 0 0 0 0.957144 0 0 0 0 0.515889 0 0 0 0 0.515889 0 0 0 0.51 0"/>
<feBlend mode="normal" in2="shape" result="effect2_innerShadow_2_15283"/>
<feColorMatrix in="SourceAlpha" type="matrix" values="0 0 0 0 0 0 0 0 0 0 0 0 0 0 0 0 0 0 127 0" result="hardAlpha"/>
<feOffset dx="6" dy="4"/>
<feGaussianBlur stdDeviation="3"/>
<feComposite in2="hardAlpha" operator="arithmetic" k2="-1" k3="1"/>
<feColorMatrix type="matrix" values="0 0 0 0 0.954646 0 0 0 0 0.159365 0 0 0 0 0.716062 0 0 0 0.25 0"/>
<feBlend mode="normal" in2="effect2_innerShadow_2_15283" result="effect3_innerShadow_2_15283"/>
</filter>
<filter id="filter4_dii_2_15283" x="0" y="-1" width="93.1093" height="55" filterUnits="userSpaceOnUse" color-interpolation-filters="sRGB">
<feFlood flood-opacity="0" result="BackgroundImageFix"/>
<feColorMatrix in="SourceAlpha" type="matrix" values="0 0 0 0 0 0 0 0 0 0 0 0 0 0 0 0 0 0 127 0" result="hardAlpha"/>
<feOffset dy="2"/>
<feGaussianBlur stdDeviation="2.5"/>
<feComposite in2="hardAlpha" operator="out"/>
<feColorMatrix type="matrix" values="0 0 0 0 0 0 0 0 0 0 0 0 0 0 0 0 0 0 0.18 0"/>
<feBlend mode="normal" in2="BackgroundImageFix" result="effect1_dropShadow_2_15283"/>
<feBlend mode="normal" in="SourceGraphic" in2="effect1_dropShadow_2_15283" result="shape"/>
<feColorMatrix in="SourceAlpha" type="matrix" values="0 0 0 0 0 0 0 0 0 0 0 0 0 0 0 0 0 0 127 0" result="hardAlpha"/>
<feOffset dy="-4"/>
<feGaussianBlur stdDeviation="2"/>
<feComposite in2="hardAlpha" operator="arithmetic" k2="-1" k3="1"/>
<feColorMatrix type="matrix" values="0 0 0 0 0.957144 0 0 0 0 0.515889 0 0 0 0 0.515889 0 0 0 0.51 0"/>
<feBlend mode="normal" in2="shape" result="effect2_innerShadow_2_15283"/>
<feColorMatrix in="SourceAlpha" type="matrix" values="0 0 0 0 0 0 0 0 0 0 0 0 0 0 0 0 0 0 127 0" result="hardAlpha"/>
<feOffset dx="6" dy="4"/>
<feGaussianBlur stdDeviation="3"/>
<feComposite in2="hardAlpha" operator="arithmetic" k2="-1" k3="1"/>
<feColorMatrix type="matrix" values="0 0 0 0 0.954646 0 0 0 0 0.159365 0 0 0 0 0.716062 0 0 0 0.25 0"/>
<feBlend mode="normal" in2="effect2_innerShadow_2_15283" result="effect3_innerShadow_2_15283"/>
</filter>
<linearGradient id="paint0_linear_2_15283" x1="454.856" y1="-10.1303" x2="454.856" y2="69.288" gradientUnits="userSpaceOnUse">
<stop stop-color="#7F7C80"/>
<stop offset="0.543269" stop-color="#A0A0A0"/>
<stop offset="0.572115" stop-color="#2D2A2E"/>
<stop offset="1" stop-color="#7D7D7D"/>
</linearGradient>
<linearGradient id="paint1_linear_2_15283" x1="364.688" y1="-10.1303" x2="364.688" y2="69.288" gradientUnits="userSpaceOnUse">
<stop stop-color="#7F7C80"/>
<stop offset="0.543269" stop-color="#A0A0A0"/>
<stop offset="0.572115" stop-color="#2D2A2E"/>
<stop offset="1" stop-color="#7D7D7D"/>
</linearGradient>
<linearGradient id="paint2_linear_2_15283" x1="268.476" y1="-10.1303" x2="268.476" y2="69.288" gradientUnits="userSpaceOnUse">
<stop stop-color="#7F7C80"/>
<stop offset="0.543269" stop-color="#A0A0A0"/>
<stop offset="0.572115" stop-color="#2D2A2E"/>
<stop offset="1" stop-color="#7D7D7D"/>
</linearGradient>
<linearGradient id="paint3_linear_2_15283" x1="174.956" y1="-10.1303" x2="174.956" y2="69.288" gradientUnits="userSpaceOnUse">
<stop stop-color="#7F7C80"/>
<stop offset="0.543269" stop-color="#A0A0A0"/>
<stop offset="0.572115" stop-color="#2D2A2E"/>
<stop offset="1" stop-color="#7D7D7D"/>
</linearGradient>
<linearGradient id="paint4_linear_2_15283" x1="84.9017" y1="-10.1303" x2="84.9018" y2="69.288" gradientUnits="userSpaceOnUse">
<stop stop-color="#7F7C80"/>
<stop offset="0.543269" stop-color="#A0A0A0"/>
<stop offset="0.572115" stop-color="#2D2A2E"/>
<stop offset="1" stop-color="#7D7D7D"/>
</linearGradient>
</defs>
</svg>
